<?xml version="1.0" encoding="utf-8"?>
<!-- Generator: Adobe Illustrator 25.1.0, SVG Export Plug-In . SVG Version: 6.00 Build 0)  -->
<svg version="1.1" id="Layer_1" xmlns="http://www.w3.org/2000/svg" xmlns:xlink="http://www.w3.org/1999/xlink" x="0px" y="0px"
	 viewBox="0 0 512 512" style="enable-background:new 0 0 512 512;" xml:space="preserve">
<style type="text/css">
	.st0{fill:#F89D13;}
</style>
<g id="XMLID_1_">
	<path id="XMLID_3_" class="st0" d="M295.1,190.8c0,0-17.5-15.7-27.5,0s-10,46,9.3,37.7c0,0,11.4-3.2,18.2-10.4v42.8
		c0,0-31.6,17-57.4-7.9c0,0-25-28.2-2.1-69.4c0,0,19.9-36.5,63.1-30.9L295.1,190.8z"/>
	<path id="XMLID_4_" class="st0" d="M304.8,152.3l-3.2,32h15.7c0,0-6,65.7-7.9,73.8v2.8l32.1-3.9c0,0,4.6-72.4,6.5-76.7l16-0.7
		v-35.6C364,144.1,310.9,151.8,304.8,152.3L304.8,152.3z"/>
	<path id="XMLID_5_" class="st0" d="M371.2,144.1c0,0-3.9,58.9-5.8,62.8c-1.8,3.9-5,46.4-3.2,48.5l27.5-5.3c0,0,11.4-107.2,12.5-109
		L371.2,144.1L371.2,144.1z"/>
	<path id="XMLID_6_" class="st0" d="M481.3,182.4c0,0-16-20.3-32.4-3.8c-16.3,16.6,2.1,33.4,9.7,33.4c7.4,0,18-1.5,22.7-6.2V242
		c0,0-32.7,18.2-57.5-2.4c0,0-36-24.4-13.6-72.8c0,0,19.2-44.5,72.5-25.8L481.3,182.4L481.3,182.4z"/>
	<path id="XMLID_7_" class="st0" d="M0,375.2h26l8.3-31.6c0,0,7.7,28,8.8,28.9c0,0,18.5-23.6,23-28.9l-3.2,30.2l24.8,1.4
		c0,0-1.1-80.8,0-82.1H70.6c0,0-17.5,28.9-17.2,30.7c0.1,1.8-6.5-21.9-7-27.1l-19.5-0.6C26.8,296.3,2.4,370.6,0,375.2L0,375.2z"/>
	<path id="XMLID_8_" class="st0" d="M178.1,285.3c0,0-3.8,43.9-6.7,48.8c-2.9,4.9-3.9,38.1-4.1,39.4c-0.1,1.4,27.1-1.4,27.1-1.4
		s2.1-39.3,4.1-42.6c0,0,16.3,42.1,20.6,42.1s25.1-1.3,25.1-1.3s2.1-44.6,7.1-59.1c5.1-14.5,5.3-38.3,5.3-38.3h-26.5
		c0,0,2.7,12.6-1.1,25.1c-3.8,12.6-7.1,24.1-7.1,24.1l-14.7-44.5C207.3,277.9,184.6,285.3,178.1,285.3L178.1,285.3z"/>
	<path id="XMLID_9_" class="st0" d="M262.3,273c0,0-3.6,36.9-8,49c-4.4,12.1-4.5,48.1-4.5,48.1l28.1-2.1l1.8-31.3l12.9,31.6
		l31.3-1.4l-22.4-50.1c0,0,25.1-33.5,31.1-50.2l-29.5,2.5c0,0-15,29.5-17.4,31.8c0,0,3.8-20.9,3-30L262.3,273z"/>
	<path id="XMLID_10_" class="st0" d="M338.1,265c-1.1,0.1-5,44.5-7.7,57c-2.7,12.6-2.7,40.4-1.8,44.5h52.2l4.5-31.3h-28.6l1.3-8.8
		l18-0.8l0.8-27.1l-16.8,0.6v-8.8l23.9-2.4l-1.7-29.5C382,258.2,363.2,261.6,338.1,265z"/>
	<path id="XMLID_11_" class="st0" d="M386.6,258.2c0,0,15,54.7,18.8,60.2l-3.1,48h28.2l3.2-46.6c0,0,26.8-57.2,26.8-61.6h-29.5
		l-9.7,25.1l-6.2-25.1H386.6L386.6,258.2z"/>
	<path id="XMLID_12_" class="st0" d="M470.1,261c0,0-17,9.3-17.4,30.9c-0.3,15,7.7,27.4,21.3,33.5c6.7,3,8.6,4.5,8.6,8.1
		c0,6-16.5,4.9-24.1-7.7l-10.1,29.5c0,0,14.2,18.2,36.6,10.9c22.4-7.1,27.1-27.5,27.1-35.9c0-8.3-3.8-27.1-21.5-34
		c-6.5-2.5-9.8-4.8-8-9.1c3.8-8.8,15-0.6,21.2,7l8.3-24.4C512,270,495.7,248,470.1,261L470.1,261z"/>
	<path id="XMLID_15_" class="st0" d="M165.8,310.4c0,0-8-22.6-31-22.6c0,0-16.3,2.5-28.1,13.9c0,0-26.5,25.4-11.5,56.7
		c0,0,19.2,32.1,50.8,8.6C146,367,174.1,351.7,165.8,310.4L165.8,310.4z M135.6,342.3c-3.5,3.8-12.9,8.3-18-1.8
		c-5.1-10.1,5.9-21.2,5.9-21.2s9.4-10.4,16.3,0C146.9,329.8,139.1,338.6,135.6,342.3L135.6,342.3z"/>
	<path id="XMLID_19_" class="st0" d="M209.9,230.8c18.9-22.2,18.9-44.2,11.4-54.1c-7.4-10-20.3-8.1-33.1-2.8
		c-12.9,5.3-30.3,6.4-30,10c0.4,3.5-11.4,91.6-11.4,91.6v-2.8c0,0-4.4-39.3-7.4-47.1c-3.2-7.9-5.8-36.1-7.4-34.6
		c-1.8,1.4-32.1,6.7-32.8,7.9s-2.1,18.5-18.2,41c-16,22.4-27.5,48.1-27.5,48.1l34.6-2.1c-0.4-7.4,4.3-15,4.3-15l21.7-0.7l1.1,13.9
		c22.4,5,64.3-6.7,64.3-6.7l1.8-32.8c5.8,6.4,11.1,30.3,13.9,28.5c2.8-1.8,37-7.1,37-7.1L209.9,230.8L209.9,230.8z M113.6,245.8
		l-10.7,1.4l10.7-23.1L113.6,245.8L113.6,245.8z M196.7,207.9c-2.5,7.4-13.6,9.7-13.6,9.7l2.5-19.4
		C195,194.6,199.2,200.4,196.7,207.9L196.7,207.9z"/>
</g>
</svg>
